<svg xmlns="http://www.w3.org/2000/svg" width="1000" height="250" viewBox="0 0 1000 250" shape-rendering="geometricPrecision" text-rendering="geometricPrecision" image-rendering="optimizeQuality" fill-rule="evenodd" clip-rule="evenodd"><defs><style><![CDATA[
    .fil1 {fill:#2B2A29}
    .fil0 {fill:#E51B22}
   ]]></style></defs><g id="Слой_x0020_1"><g id="_1583410094992"><path class="fil0" d="M119 195c-40 0-73-32-73-72s33-73 73-73c30 0 57 20 67 47l-10 1c-10-22-32-38-57-38-35 0-63 28-63 63 0 34 28 62 63 62 25 0 47-15 57-37l10 1c-10 27-37 46-67 46zm0-67v-10h118c-2-29-13-57-35-79C156-7 81-7 35 39s-46 121 0 167c21 21 48 33 76 35h126V128H119z"/><path class="fil1" d="M795 102c-10 0-16 5-19 12-2 5-3 12-3 17l44-6c0-5 1-23-22-23zm-22 52c2 12 11 19 26 19 12 0 19-4 26-11l18 17c-12 12-24 19-45 19-27 0-54-13-54-60 0-39 21-60 51-60 33 0 51 19 51 51v13l-73 12zm-411-21c0 16-2 32-19 32s-19-16-19-32 2-31 19-31c8 0 19 4 19 4v27zm-27-55c-12 0-22 4-28 10-11 11-12 26-12 46 0 21 1 36 12 47 6 6 16 10 27 10 12 0 21-3 28-11v12c0 11-6 24-23 24-10 0-17-3-23-9l-18 18c12 12 24 15 42 15 32 0 52-20 52-48V88s-37-10-57-10zm364 55c0 16-2 32-19 32s-19-16-19-32 2-31 19-31c6 0 19 4 19 4v27zm-27-55c-12 0-22 4-28 10-11 11-12 26-12 46 0 21 1 36 12 47 6 6 16 10 27 10 12 0 21-3 28-11v12c0 11-6 24-23 24-10 0-17-3-23-9l-18 18c12 12 24 15 42 15 31 0 51-20 51-48V88s-36-10-56-10zm-86 92s-12 3-20 4c-18 1-20-15-20-35s2-35 20-35c17 0 20 15 20 35v31zm0-134v54c-8-9-17-12-29-12-11 0-22 4-28 10-12 12-12 32-12 50 0 17 0 37 12 49 6 7 17 11 29 11 25 0 57-10 57-10V36h-29zM472 152v17s-15 5-22 5c-12 0-17-6-17-14s6-13 16-13c6 0 23 1 23 1v4zm-20-74c-20 0-31 3-43 16l19 18c6-7 11-9 23-9 15 0 21 5 21 18v7s-20-1-27-1c-27-1-40 15-40 34 0 10 3 19 9 26 7 7 17 10 30 10 24 0 58-9 58-9v-69c0-27-17-41-50-41zm452 94c-7 0-10-4-10-11v-53l17-3V83l-17 3V48l-29 10v33l-10 1v23l10-2v50c0 16 10 33 34 33h16v-24h-11z"/></g></g></svg>